<?xml version="1.0" encoding="UTF-8" standalone="yes" ?>
<svg xmlns="http://www.w3.org/2000/svg" height="452" width="452">
  <script type="text/ecmascript">
    <![CDATA[
      var shown = 1;
      function click() {
        var seq = document.getElementById("seq");
        if (shown==1) {
          seq.setAttribute("style", "visibility: hidden");
          shown = 0;
        } else {
          seq.setAttribute("style", "visibility: visible");
          shown = 1;
        }
      }
    ]]>
  </script>
  <style type="text/css">
    <![CDATA[
      .nucleotide {
        font-family: SansSerif;
      }
      .backbone {
        stroke: grey;
        fill:   none;
        stroke-width: 1.5;
      }
      .basepairs {
        stroke: red;
        fill:   none;
        stroke-width: 2.5;
      }
    ]]>
  </style>

  <rect style="stroke: white; fill: white" height="452" x="0" y="0" width="452" onclick="click(evt)" />
  <g transform="scale(1.263299,1.263299) translate(66.647278,109.750946)">
    <polyline class="backbone" id="outline" points="
      91.713,-83.740
      91.076,-68.754
      90.440,-53.767
      89.803,-38.781
      89.166,-23.794
      88.530,-8.808
      87.893,6.178
      87.257,21.165
      86.372,24.412
      86.110,27.556
      71.767,23.163
      57.425,18.771
      48.660,5.334
      32.677,3.952
      21.736,15.685
      24.230,31.533
      38.246,39.338
      53.032,33.113
      67.375,37.506
      81.717,41.898
      89.582,54.671
      87.047,69.455
      84.512,84.240
      74.554,96.534
      80.029,110.385
      70.071,122.679
      75.546,136.531
      73.011,151.316
      70.476,166.100
      67.941,180.884
      65.406,195.668
      51.810,203.394
      46.409,218.069
      51.754,232.765
      65.321,240.543
      80.703,237.729
      90.638,225.653
      90.435,210.017
      80.190,198.203
      82.725,183.419
      85.260,168.635
      87.795,153.851
      90.330,139.066
      100.107,127.830
      94.813,112.920
      104.590,101.684
      99.296,86.775
      101.831,71.990
      104.366,57.206
      115.196,46.827
      130.074,44.922
      144.953,43.016
      159.831,41.111
      171.199,51.849
      186.813,52.715
      199.300,43.301
      202.763,28.052
      195.569,14.168
      181.113,8.204
      166.222,12.977
      157.926,26.233
      143.047,28.138
      128.169,30.043
      113.290,31.948
      102.243,21.802
      102.880,6.815
      103.516,-8.171
      104.153,-23.158
      104.790,-38.144
      105.426,-53.131
      106.063,-68.117
      106.699,-83.104
      109.706,-102.251
    " />
    <g id="pairs">
      <line class="basepairs" id="1,72" x1="91.71296" y1="-83.74042" x2="106.69944" y2="-83.10381" />
      <line class="basepairs" id="2,71" x1="91.07634" y1="-68.75394" x2="106.06282" y2="-68.11732" />
      <line class="basepairs" id="3,70" x1="90.43972" y1="-53.76746" x2="105.42621" y2="-53.13083" />
      <line class="basepairs" id="4,69" x1="89.80310" y1="-38.78098" x2="104.78959" y2="-38.14435" />
      <line class="basepairs" id="5,68" x1="89.16649" y1="-23.79448" x2="104.15297" y2="-23.15787" />
      <line class="basepairs" id="6,67" x1="88.52987" y1="-8.80800" x2="103.51635" y2="-8.17139" />
      <line class="basepairs" id="7,66" x1="87.89325" y1="6.17848" x2="102.87973" y2="6.81511" />
      <line class="basepairs" id="8,65" x1="87.25663" y1="21.16497" x2="102.24312" y2="21.80159" />
      <line class="basepairs" id="10,20" x1="86.10973" y1="27.55562" x2="81.71739" y2="41.89812" />
      <line class="basepairs" id="11,19" x1="71.76723" y1="23.16328" x2="67.37489" y2="37.50578" />
      <line class="basepairs" id="12,18" x1="57.42474" y1="18.77094" x2="53.03239" y2="33.11343" />
      <line class="basepairs" id="21,49" x1="89.58201" y1="54.67105" x2="104.36624" y2="57.20606" />
      <line class="basepairs" id="22,48" x1="87.04699" y1="69.45529" x2="101.83123" y2="71.99030" />
      <line class="basepairs" id="23,47" x1="84.51198" y1="84.23953" x2="99.29622" y2="86.77454" />
      <line class="basepairs" id="25,45" x1="80.02882" y1="110.38540" x2="94.81306" y2="112.92041" />
      <line class="basepairs" id="27,43" x1="75.54566" y1="136.53127" x2="90.32990" y2="139.06628" />
      <line class="basepairs" id="28,42" x1="73.01065" y1="151.31551" x2="87.79488" y2="153.85052" />
      <line class="basepairs" id="29,41" x1="70.47564" y1="166.09975" x2="85.25987" y2="168.63477" />
      <line class="basepairs" id="30,40" x1="67.94062" y1="180.88399" x2="82.72486" y2="183.41901" />
      <line class="basepairs" id="31,39" x1="65.40561" y1="195.66823" x2="80.18985" y2="198.20325" />
      <line class="basepairs" id="50,64" x1="115.19559" y1="46.82698" x2="113.29032" y2="31.94848" />
      <line class="basepairs" id="51,63" x1="130.07410" y1="44.92171" x2="128.16882" y2="30.04321" />
      <line class="basepairs" id="52,62" x1="144.95259" y1="43.01645" x2="143.04733" y2="28.13794" />
      <line class="basepairs" id="53,61" x1="159.83110" y1="41.11118" x2="157.92584" y2="26.23267" />
    </g>
    <g transform="translate(-4.6, 4)" id="seq">
      <text class="nucleotide" x="91.713" y="-83.740">G</text>
      <text class="nucleotide" x="91.076" y="-68.754">C</text>
      <text class="nucleotide" x="90.440" y="-53.767">C</text>
      <text class="nucleotide" x="89.803" y="-38.781">G</text>
      <text class="nucleotide" x="89.166" y="-23.794">C</text>
      <text class="nucleotide" x="88.530" y="-8.808">T</text>
      <text class="nucleotide" x="87.893" y="6.178">G</text>
      <text class="nucleotide" x="87.257" y="21.165">T</text>
      <text class="nucleotide" x="86.372" y="24.412">A</text>
      <text class="nucleotide" x="86.110" y="27.556">G</text>
      <text class="nucleotide" x="71.767" y="23.163">C</text>
      <text class="nucleotide" x="57.425" y="18.771">T</text>
      <text class="nucleotide" x="48.660" y="5.334">C</text>
      <text class="nucleotide" x="32.677" y="3.952">A</text>
      <text class="nucleotide" x="21.736" y="15.685">G</text>
      <text class="nucleotide" x="24.230" y="31.533">T</text>
      <text class="nucleotide" x="38.246" y="39.338">C</text>
      <text class="nucleotide" x="53.032" y="33.113">G</text>
      <text class="nucleotide" x="67.375" y="37.506">G</text>
      <text class="nucleotide" x="81.717" y="41.898">C</text>
      <text class="nucleotide" x="89.582" y="54.671">A</text>
      <text class="nucleotide" x="87.047" y="69.455">G</text>
      <text class="nucleotide" x="84.512" y="84.240">A</text>
      <text class="nucleotide" x="74.554" y="96.534">G</text>
      <text class="nucleotide" x="80.029" y="110.385">C</text>
      <text class="nucleotide" x="70.071" y="122.679">G</text>
      <text class="nucleotide" x="75.546" y="136.531">T</text>
      <text class="nucleotide" x="73.011" y="151.316">C</text>
      <text class="nucleotide" x="70.476" y="166.100">T</text>
      <text class="nucleotide" x="67.941" y="180.884">C</text>
      <text class="nucleotide" x="65.406" y="195.668">A</text>
      <text class="nucleotide" x="51.810" y="203.394">C</text>
      <text class="nucleotide" x="46.409" y="218.069">T</text>
      <text class="nucleotide" x="51.754" y="232.765">C</text>
      <text class="nucleotide" x="65.321" y="240.543">G</text>
      <text class="nucleotide" x="80.703" y="237.729">T</text>
      <text class="nucleotide" x="90.638" y="225.653">A</text>
      <text class="nucleotide" x="90.435" y="210.017">A</text>
      <text class="nucleotide" x="80.190" y="198.203">T</text>
      <text class="nucleotide" x="82.725" y="183.419">G</text>
      <text class="nucleotide" x="85.260" y="168.635">A</text>
      <text class="nucleotide" x="87.795" y="153.851">G</text>
      <text class="nucleotide" x="90.330" y="139.066">A</text>
      <text class="nucleotide" x="100.107" y="127.830">A</text>
      <text class="nucleotide" x="94.813" y="112.920">G</text>
      <text class="nucleotide" x="104.590" y="101.684">G</text>
      <text class="nucleotide" x="99.296" y="86.775">T</text>
      <text class="nucleotide" x="101.831" y="71.990">C</text>
      <text class="nucleotide" x="104.366" y="57.206">T</text>
      <text class="nucleotide" x="115.196" y="46.827">G</text>
      <text class="nucleotide" x="130.074" y="44.922">G</text>
      <text class="nucleotide" x="144.953" y="43.016">G</text>
      <text class="nucleotide" x="159.831" y="41.111">G</text>
      <text class="nucleotide" x="171.199" y="51.849">T</text>
      <text class="nucleotide" x="186.813" y="52.715">T</text>
      <text class="nucleotide" x="199.300" y="43.301">C</text>
      <text class="nucleotide" x="202.763" y="28.052">G</text>
      <text class="nucleotide" x="195.569" y="14.168">A</text>
      <text class="nucleotide" x="181.113" y="8.204">T</text>
      <text class="nucleotide" x="166.222" y="12.977">T</text>
      <text class="nucleotide" x="157.926" y="26.233">C</text>
      <text class="nucleotide" x="143.047" y="28.138">C</text>
      <text class="nucleotide" x="128.169" y="30.043">C</text>
      <text class="nucleotide" x="113.290" y="31.948">C</text>
      <text class="nucleotide" x="102.243" y="21.802">A</text>
      <text class="nucleotide" x="102.880" y="6.815">C</text>
      <text class="nucleotide" x="103.516" y="-8.171">A</text>
      <text class="nucleotide" x="104.153" y="-23.158">G</text>
      <text class="nucleotide" x="104.790" y="-38.144">C</text>
      <text class="nucleotide" x="105.426" y="-53.131">G</text>
      <text class="nucleotide" x="106.063" y="-68.117">G</text>
      <text class="nucleotide" x="106.699" y="-83.104">C</text>
      <text class="nucleotide" x="109.706" y="-102.251">T</text>
    </g>
  </g>
</svg>
